<svg class="svg-logo" enable-background="new 0 0 512 512" viewBox="0 0 512 512" xmlns="http://www.w3.org/2000/svg">
    <g>
        <path d="m203.042 214.445-57.048-.504c11.181-14.993 13.595-23.187 11.738-39.771l-.063-.537h18.045c9.697 0 9.697-15 0-15h-21.561c-3.529-5.087-10.306-16.902-10.264-26.779 0-.01-.001-.02-.001-.03s.001-.019.001-.029c-.023-6.336 2.853-11.18 8.547-14.398 8.449-4.775 21.61-4.843 29.34-.15 6.109 3.708 10.567 8.777 11.925 13.557 2.651 9.328 17.08 5.228 14.429-4.1-2.402-8.453-9.17-16.573-18.57-22.28-12.275-7.452-31.408-7.489-44.504-.087-10.433 5.896-16.168 15.622-16.164 27.393 0 .02-.003.039-.003.058 0 .013.001.025.001.038 0 .007-.001.014-.001.021 0 .008.001.016.001.023-.019 9.783 4.016 19.667 7.786 26.761h-11.826c-9.697 0-9.697 15 0 15h17.718c2.492 12.468-1.211 21.438-8.607 31.354l-9.277 11.646c-3.139 6.474-1.206 10.532 5.8 12.172l72.426.64c9.432.202 9.56-14.914.132-14.998z"/>
        <path d="m344.498 177.104c-3.286 0-6.546.106-9.786.293.187-3.251.293-6.513.293-9.76 0-92.227-75.142-167.258-167.502-167.258-92.362 0-167.503 75.032-167.503 167.259 0 92.226 75.141 167.258 167.502 167.258 3.257 0 6.527-.104 9.785-.291-.187 3.23-.292 6.482-.292 9.758 0 92.227 75.142 167.258 167.503 167.258 44.739 0 86.825-17.372 118.438-48.984 6.812-6.812-3.549-17.664-10.598-10.615-28.782 28.782-67.104 44.599-107.84 44.599-84.091 0-152.503-68.303-152.503-152.258s68.412-152.258 152.503-152.258c84.09 0 152.502 68.303 152.502 152.258 0 26.542-6.94 52.669-20.071 75.559-4.824 8.412 8.183 15.874 13.012 7.464 14.432-25.157 22.06-53.866 22.06-83.022-.001-92.228-75.142-167.26-167.503-167.26zm-154.626 102.966c-7.333 1.45-14.84 2.19-22.37 2.19-63.306 0-114.809-51.419-114.809-114.622 0-29.683 11.903-57.35 32.009-79.32 8.298-9.068-3.952-18.009-10.812-10.397-22.546 25.017-36.196 56.138-36.196 89.717 0 71.474 58.232 129.622 129.809 129.622 5.554 0 11.097-.367 16.585-1.069-2.279 7.552-4.041 15.324-5.235 23.281-3.77.276-7.569.424-11.349.424-84.092 0-152.504-68.303-152.504-152.258 0-83.956 68.412-152.259 152.502-152.259s152.502 68.303 152.502 152.258c0 3.767-.144 7.558-.42 11.319-7.978 1.193-15.771 2.955-23.342 5.234.702-5.477 1.069-11.009 1.069-16.552 0-71.474-58.232-129.623-129.809-129.623-21.043 0-41.958 5.169-60.483 14.949-8.576 4.527-1.571 17.795 7.003 13.265 16.375-8.644 34.868-13.213 53.48-13.213 63.306 0 114.809 51.419 114.809 114.623 0 7.515-.74 15.005-2.191 22.321-40.666 16.968-73.251 49.504-90.248 90.11z"/>
        <path d="m344.497 214.74c-71.576 0-129.808 58.148-129.808 129.622s58.231 129.623 129.808 129.623 129.81-58.148 129.81-129.623c0-71.473-58.233-129.622-129.81-129.622zm0 244.245c-63.305 0-114.808-51.419-114.808-114.623 0-63.203 51.503-114.622 114.808-114.622 63.307 0 114.81 51.419 114.81 114.622s-51.503 114.623-114.81 114.623z"/>
        <path d="m376.551 289.871c-9.131-7.322-19.795-11.192-30.84-11.192-28.555 0-52.142 26.062-55.249 59.471h-1.703c-4.143 0-7.5 3.358-7.5 7.5s3.357 7.5 7.5 7.5h1.703c3.107 33.409 26.693 59.471 55.249 59.471 8.743 0 17.451-2.495 25.184-7.216 3.535-2.159 4.651-6.774 2.493-10.31-2.159-3.536-6.776-4.65-10.31-2.493-5.454 3.33-11.298 5.019-17.367 5.019-20.4 0-37.328-19.356-40.178-44.471h31.289c4.143 0 7.5-3.358 7.5-7.5s-3.357-7.5-7.5-7.5h-31.289c2.849-25.115 19.778-44.471 40.178-44.471 7.597 0 15.016 2.729 21.455 7.894 3.232 2.591 7.953 2.073 10.543-1.159 2.592-3.231 2.073-7.952-1.158-10.543z"/>
        <path d="m356.076 93.362c3.453 3.115 6.984 3.304 10.592.565 3.08-2.769 3.333-7.511.564-10.591l-9.449-10.515c51.569 6.995 91.447 51.305 91.447 104.761 0 9.697 15 9.697 15 0 0-61.161-45.717-111.84-104.772-119.673l12.988-7.613c8.366-4.903.78-17.846-7.586-12.94l-30.791 18.048c-4.229 3.263-4.824 7.09-1.785 11.483z"/>
        <path d="m155.925 418.638c-10.403-4.096-14.122-.754-11.157 10.026l9.449 10.515c-51.569-6.995-91.447-51.305-91.447-104.761 0-9.697-15-9.697-15 0 0 61.162 45.717 111.841 104.773 119.673l-12.988 7.613c-8.589 5.033-.422 17.634 7.585 12.94l30.791-18.048c4.229-3.263 4.825-7.09 1.786-11.483z"/>
    </g>
</svg>
